<svg width="166" height="41" viewBox="0 0 166 41" fill="none" xmlns="http://www.w3.org/2000/svg">
<path fill-rule="evenodd" clip-rule="evenodd" d="M75.0483 0.123C77.235 0.0227736 77.932 0 83.5 0C89.0691 0 89.765 0.0239104 91.9505 0.123C94.1337 0.22209 95.6246 0.569453 96.9286 1.07625C98.2963 1.59119 99.5353 2.39802 100.559 3.44059C101.602 4.46453 102.409 5.70358 102.924 7.07136C103.43 8.37539 103.777 9.8662 103.877 12.0483C103.977 14.235 104 14.932 104 20.5C104 26.068 103.976 26.765 103.877 28.9518C103.778 31.1337 103.43 32.6246 102.924 33.9286C102.4 35.276 101.698 36.4205 100.559 37.5594C99.5355 38.6021 98.2963 39.409 96.9286 39.9238C95.6246 40.4305 94.1337 40.7767 91.9518 40.877C89.765 40.9773 89.068 41 83.5 41C77.932 41 77.235 40.9761 75.0483 40.877C72.8662 40.7779 71.3754 40.4305 70.0714 39.9238C68.724 39.3999 67.5795 38.6982 66.4406 37.5594C65.3978 36.5355 64.5909 35.2963 64.0762 33.9286C63.5695 32.6246 63.2232 31.1337 63.123 28.9518C63.0228 26.765 63 26.0691 63 20.5C63 14.9308 63.0239 14.235 63.123 12.0495C63.2221 9.8662 63.5695 8.37539 64.0762 7.07136C64.5912 5.70368 65.398 4.46468 66.4406 3.44059C67.4645 2.39783 68.7036 1.59095 70.0714 1.07625C71.3754 0.569453 72.8662 0.223226 75.0483 0.123ZM91.7842 3.813C89.6226 3.71505 88.9735 3.69341 83.5 3.69341C78.0265 3.69341 77.3773 3.71505 75.2157 3.813C73.217 3.90411 72.1316 4.2378 71.4095 4.51911C70.4529 4.89039 69.7695 5.33455 69.052 6.05205C68.3357 6.76955 67.8904 7.45289 67.5191 8.40955C67.2378 9.13161 66.9041 10.217 66.813 12.2157C66.715 14.3773 66.6934 15.0265 66.6934 20.5C66.6934 25.9735 66.715 26.6226 66.813 28.7842C66.9041 30.783 67.2378 31.8684 67.5191 32.5905C67.8475 33.481 68.3714 34.2864 69.052 34.948C69.7135 35.6286 70.519 36.1525 71.4095 36.4809C72.1316 36.7623 73.217 37.0959 75.2157 37.187C77.3773 37.285 78.0254 37.3066 83.5 37.3066C88.9746 37.3066 89.6226 37.285 91.7842 37.187C93.783 37.0959 94.8684 36.7623 95.5905 36.4809C96.5471 36.1096 97.2305 35.6655 97.948 34.948C98.6286 34.2866 99.1525 33.481 99.4809 32.5905C99.7623 31.8684 100.096 30.783 100.187 28.7842C100.285 26.6226 100.307 25.9735 100.307 20.5C100.307 15.0265 100.285 14.3773 100.187 12.2157C100.096 10.217 99.7623 9.13161 99.4809 8.40955C99.1096 7.45289 98.6655 6.76955 97.948 6.05205C97.2305 5.3357 96.5471 4.89039 95.5905 4.51911C94.8684 4.2378 93.783 3.90411 91.7842 3.813ZM80.8825 26.8194C81.7124 27.1632 82.6017 27.3401 83.5 27.3401C85.3143 27.3401 87.054 26.6194 88.3367 25.3367C89.6196 24.054 90.3403 22.3141 90.3403 20.5C90.3403 18.6859 89.6196 16.946 88.3367 15.6633C87.054 14.3805 85.3143 13.6598 83.5 13.6598C82.6017 13.6598 81.7124 13.8368 80.8825 14.1805C80.0525 14.5242 79.2985 15.0281 78.6633 15.6633C78.0282 16.2984 77.5243 17.0525 77.1806 17.8823C76.8368 18.7122 76.6599 19.6017 76.6599 20.5C76.6599 21.3983 76.8368 22.2878 77.1806 23.1177C77.5243 23.9475 78.0282 24.7016 78.6633 25.3367C79.2985 25.9718 80.0525 26.4757 80.8825 26.8194ZM76.0493 13.0492C78.0253 11.0731 80.7055 9.96298 83.5 9.96298C86.2947 9.96298 88.9748 11.0731 90.9508 13.0492C92.9268 15.0253 94.037 17.7055 94.037 20.5C94.037 23.2945 92.9268 25.9746 90.9508 27.9508C88.9748 29.9268 86.2947 31.037 83.5 31.037C80.7055 31.037 78.0253 29.9268 76.0493 27.9508C74.0732 25.9746 72.9631 23.2945 72.9631 20.5C72.9631 17.7055 74.0732 15.0253 76.0493 13.0492ZM96.3734 11.5329C96.8405 11.0658 97.1029 10.4322 97.1029 9.77166C97.1029 9.11106 96.8405 8.47753 96.3734 8.01043C95.9062 7.54333 95.2728 7.28091 94.6121 7.28091C93.9516 7.28091 93.318 7.54333 92.851 8.01043C92.3838 8.47753 92.1214 9.11106 92.1214 9.77166C92.1214 10.4322 92.3838 11.0658 92.851 11.5329C93.318 12 93.9516 12.2624 94.6121 12.2624C95.2728 12.2624 95.9062 12 96.3734 11.5329Z" fill="white"/>
<path d="M122 4C122 1.79086 123.791 0 126 0H162C164.209 0 166 1.79086 166 4V37C166 39.2091 164.209 41 162 41H126C123.791 41 122 39.2091 122 37V4Z" fill="white"/>
<path d="M155.069 12.0101C154.108 12.6877 153.045 13.2059 151.919 13.5449C151.315 12.8502 150.512 12.3579 149.619 12.1344C148.726 11.9109 147.786 11.9671 146.926 12.2954C146.066 12.6237 145.327 13.2082 144.81 13.9699C144.293 14.7316 144.022 15.6338 144.035 16.5543V17.5574C142.272 17.6032 140.525 17.2122 138.95 16.4193C137.374 15.6265 136.02 14.4564 135.006 13.0132C135.006 13.0132 130.994 22.0415 140.022 26.054C137.956 27.4564 135.495 28.1595 133 28.0603C142.028 33.076 153.063 28.0603 153.063 16.5242C153.062 16.2448 153.035 15.9661 152.983 15.6916C154.006 14.6819 154.729 13.4072 155.069 12.0101Z" fill="#00252E"/>
<path d="M0 4C0 1.79086 1.79086 0 4 0H40C42.2091 0 44 1.79086 44 4V37C44 39.2091 42.2091 41 40 41H4C1.79086 41 0 39.2091 0 37V4Z" fill="white"/>
<path d="M26.9 11H24.2C23.0065 11 21.8619 11.4741 21.018 12.318C20.1741 13.1619 19.7 14.3065 19.7 15.5V18.2H17V21.8H19.7V29H23.3V21.8H26L26.9 18.2H23.3V15.5C23.3 15.2613 23.3948 15.0324 23.5636 14.8636C23.7324 14.6948 23.9613 14.6 24.2 14.6H26.9V11Z" fill="#00252E"/>
</svg>
